<svg width="124" height="24" viewBox="0 0 124 24" fill="none" xmlns="http://www.w3.org/2000/svg">
<g clip-path="url(#clip0_11121_109193)">
<path fill-rule="evenodd" clip-rule="evenodd" d="M0 5.64705V21.2469C0 22.7685 1.23504 24 2.75855 24H21.2889C22.8136 24 24.0475 22.7674 24.0475 21.2469V2.7531C24.0475 1.23147 22.8124 0 21.2889 0H10.0787V2.75159C10.0787 4.27204 8.91466 5.50459 7.39144 5.50459H6.79438L4.74332 7.96946L4.95096 5.64705H0ZM17.6434 7.97164C17.2982 7.3728 16.8502 6.87244 16.2996 6.47051C15.7489 6.06855 15.1242 5.76915 14.4256 5.57228C13.727 5.3754 12.9996 5.27696 12.2434 5.27696C11.2078 5.27696 10.2872 5.44924 9.48176 5.79375C8.67629 6.13826 7.99413 6.61815 7.43521 7.23337C6.8763 7.8486 6.45302 8.57865 6.16536 9.42352C5.87769 10.2684 5.73385 11.1831 5.73385 12.1674C5.73385 13.119 5.89001 13.9926 6.20233 14.7882C6.51468 15.584 6.95028 16.2689 7.5092 16.8431C8.06807 17.4173 8.74617 17.8643 9.54342 18.1843C10.3407 18.5042 11.216 18.6641 12.1694 18.6641C13.8626 18.6641 15.2516 18.2212 16.3365 17.3352C17.4215 16.4493 18.079 15.1615 18.3091 13.4717H14.9311C14.816 14.2591 14.5324 14.8867 14.0804 15.3543C13.6283 15.8218 12.9832 16.0556 12.1448 16.0556C11.6023 16.0556 11.1421 15.9326 10.7639 15.6865C10.3859 15.4404 10.0859 15.1246 9.86397 14.739C9.64206 14.3535 9.48176 13.9228 9.38313 13.4471C9.2845 12.9713 9.2352 12.5037 9.2352 12.0444C9.2352 11.5686 9.2845 11.0887 9.38313 10.6048C9.48176 10.1208 9.65028 9.67785 9.88862 9.27589C10.127 8.87396 10.4352 8.54584 10.8133 8.29155C11.1914 8.03726 11.6598 7.9101 12.2187 7.9101C13.7146 7.9101 14.5776 8.64015 14.8078 10.1003H18.2352C18.1859 9.27997 17.9886 8.57044 17.6434 7.97164Z" fill="white"/>
<path fill-rule="evenodd" clip-rule="evenodd" d="M37.5393 11.4951H39.2763C39.2105 10.8839 39.0527 10.3557 38.8025 9.91054C38.5526 9.46541 38.2336 9.09671 37.8451 8.80436C37.4571 8.51205 37.0097 8.29612 36.5031 8.15662C35.9965 8.01709 35.4537 7.94734 34.8747 7.94734C34.072 7.94734 33.368 8.09017 32.7627 8.37585C32.1574 8.66153 31.6541 9.05351 31.2527 9.55181C30.8514 10.0501 30.5521 10.6347 30.3547 11.3057C30.1573 11.9767 30.0586 12.6976 30.0586 13.4683C30.0586 14.2389 30.1606 14.9465 30.3645 15.5909C30.5685 16.2354 30.8711 16.7901 31.2725 17.2552C31.6738 17.7202 32.1739 18.079 32.7726 18.3315C33.3713 18.5839 34.0589 18.7101 34.8352 18.7101C36.1379 18.7101 37.1676 18.3647 37.9244 17.6737C38.6807 16.9828 39.1512 15.9995 39.3357 14.7239H37.6181C37.513 15.5212 37.2268 16.139 36.7597 16.5775C36.2925 17.016 35.6445 17.2352 34.8155 17.2352C34.2891 17.2352 33.8351 17.1289 33.4535 16.9163C33.0719 16.7037 32.7627 16.4214 32.5259 16.0693C32.289 15.7171 32.1147 15.3152 32.0028 14.8634C31.8909 14.4117 31.835 13.9466 31.835 13.4683C31.835 12.9501 31.8877 12.4485 31.9929 11.9635C32.0982 11.4784 32.2725 11.0499 32.516 10.6779C32.7594 10.3059 33.0851 10.0069 33.493 9.78101C33.9009 9.55511 34.4075 9.44216 35.0129 9.44216C35.7234 9.44216 36.2893 9.62156 36.7103 9.98033C37.1314 10.3391 37.4077 10.844 37.5393 11.4951ZM42.1259 13.3487C42.1259 12.7242 42.2082 12.1694 42.3728 11.6844C42.5373 11.1995 42.7643 10.7908 43.0536 10.4587C43.3433 10.1265 43.6819 9.87401 44.07 9.70129C44.4585 9.52852 44.8696 9.44216 45.3039 9.44216C45.7379 9.44216 46.1494 9.52852 46.5375 9.70129C46.9256 9.87401 47.2646 10.1265 47.5539 10.4587C47.8436 10.7908 48.0705 11.1995 48.2347 11.6844C48.3993 12.1694 48.4816 12.7242 48.4816 13.3487C48.4816 13.9732 48.3993 14.5279 48.2347 15.0129C48.0705 15.4979 47.8436 15.9032 47.5539 16.2287C47.2646 16.5543 46.9256 16.8034 46.5375 16.9761C46.1494 17.1489 45.7379 17.2352 45.3039 17.2352C44.8696 17.2352 44.4585 17.1489 44.07 16.9761C43.6819 16.8034 43.3433 16.5543 43.0536 16.2287C42.7643 15.9032 42.5373 15.4979 42.3728 15.0129C42.2082 14.5279 42.1259 13.9732 42.1259 13.3487ZM40.3494 13.3487C40.3494 14.1061 40.4546 14.8103 40.6654 15.4614C40.8758 16.1124 41.1918 16.6805 41.6126 17.1655C42.0339 17.6505 42.5535 18.0292 43.172 18.3015C43.7904 18.5739 44.501 18.7101 45.3039 18.7101C46.1197 18.7101 46.8336 18.5739 47.4453 18.3015C48.0574 18.0292 48.5736 17.6505 48.9948 17.1655C49.4161 16.6805 49.7317 16.1124 49.9421 15.4614C50.1529 14.8103 50.2581 14.1061 50.2581 13.3487C50.2581 12.5913 50.1529 11.8838 49.9421 11.226C49.7317 10.5683 49.4161 9.99694 48.9948 9.51195C48.5736 9.02693 48.0574 8.64491 47.4453 8.36591C46.8336 8.08687 46.1197 7.94734 45.3039 7.94734C44.501 7.94734 43.7904 8.08687 43.172 8.36591C42.5535 8.64491 42.0339 9.02693 41.6126 9.51195C41.1918 9.99694 40.8758 10.5683 40.6654 11.226C40.4546 11.8838 40.3494 12.5913 40.3494 13.3487ZM51.5476 8.1612V18.5642H53.2253V12.0731C53.2253 11.8738 53.2749 11.6246 53.3734 11.3257C53.4722 11.0267 53.63 10.7377 53.8472 10.4587C54.0644 10.1796 54.3473 9.94046 54.696 9.74115C55.0447 9.54184 55.4625 9.44216 55.9494 9.44216C56.3308 9.44216 56.6434 9.49864 56.8869 9.61159C57.1304 9.72454 57.3243 9.88399 57.4689 10.0899C57.614 10.2959 57.7158 10.5384 57.7752 10.8174C57.8342 11.0965 57.8639 11.4021 57.8639 11.7342V18.5642H59.5415V12.0731C59.5415 11.2758 59.7786 10.638 60.2521 10.1597C60.7259 9.68134 61.3774 9.44216 62.2063 9.44216C62.6143 9.44216 62.9465 9.50197 63.2031 9.62156C63.4598 9.74115 63.6604 9.9039 63.8051 10.1098C63.9497 10.3158 64.0486 10.5583 64.1012 10.8373C64.1538 11.1164 64.1801 11.4153 64.1801 11.7342V18.5642H65.8578V10.937C65.8578 10.4055 65.7755 9.95044 65.6109 9.57172C65.4467 9.19305 65.2164 8.88409 64.9203 8.64491C64.6242 8.40574 64.2687 8.22971 63.8543 8.11676C63.4399 8.00381 62.9762 7.94734 62.4629 7.94734C61.7919 7.94734 61.1768 8.10015 60.6173 8.40577C60.0582 8.71136 59.6073 9.14321 59.2654 9.70129C59.0546 9.06349 58.6927 8.61172 58.1798 8.34596C57.6666 8.0802 57.094 7.94734 56.4623 7.94734C55.0281 7.94734 53.9295 8.532 53.1663 9.70129H53.1269V8.1612H51.5476ZM75.1619 12.3521H69.2995C69.3259 11.9535 69.4115 11.5781 69.5562 11.226C69.7008 10.8739 69.8985 10.5649 70.1483 10.2992C70.3982 10.0335 70.6977 9.82417 71.0464 9.6714C71.3951 9.51859 71.7866 9.44216 72.2209 9.44216C72.6418 9.44216 73.0269 9.51859 73.3756 9.6714C73.7243 9.82417 74.0268 10.0301 74.2834 10.2892C74.54 10.5483 74.744 10.8573 74.8955 11.2161C75.0465 11.5748 75.1356 11.9535 75.1619 12.3521ZM76.7802 15.2222H75.1224C74.9778 15.8998 74.6783 16.4048 74.2244 16.737C73.7701 17.0691 73.1881 17.2352 72.4776 17.2352C71.9249 17.2352 71.4447 17.1422 71.0366 16.9562C70.6285 16.7702 70.293 16.521 70.03 16.2088C69.7666 15.8965 69.5761 15.5378 69.4574 15.1325C69.339 14.7272 69.2864 14.2987 69.2995 13.847H76.9384C76.9647 13.2224 76.9087 12.5647 76.7704 11.8738C76.6321 11.1828 76.3823 10.545 76.0204 9.96038C75.6586 9.37575 75.1784 8.89406 74.5795 8.51539C73.9809 8.13668 73.2276 7.94734 72.3194 7.94734C71.622 7.94734 70.9806 8.0802 70.3952 8.34596C69.8094 8.61172 69.3029 8.98376 68.8753 9.46211C68.4477 9.94046 68.1152 10.5052 67.8785 11.1562C67.6418 11.8073 67.523 12.5248 67.523 13.3088C67.5493 14.0928 67.6647 14.8169 67.8687 15.4813C68.0728 16.1457 68.3786 16.717 68.7863 17.1954C69.1943 17.6737 69.6978 18.0457 70.2964 18.3115C70.8949 18.5773 71.6025 18.7101 72.4182 18.7101C73.5762 18.7101 74.5366 18.4178 75.3001 17.8332C76.0633 17.2485 76.5566 16.3782 76.7802 15.2222ZM80.6958 8.1612V5.25H79.0181V8.1612H77.281V9.64736H79.0181V16.3087C79.0181 16.7871 79.0643 17.1724 79.1564 17.4647C79.2484 17.757 79.3897 17.9829 79.5806 18.1424C79.7715 18.3018 80.0213 18.4114 80.3306 18.4712C80.6398 18.531 81.0118 18.5609 81.4458 18.5609H82.7289V17.0661H81.959C81.696 17.0661 81.4822 17.0561 81.3176 17.0362C81.1531 17.0163 81.0249 16.9731 80.9329 16.9066C80.8405 16.8402 80.7781 16.7472 80.7454 16.6276C80.7123 16.508 80.6958 16.3486 80.6958 16.1493V9.64736H82.7289V8.1612H80.6958ZM91.0264 11.814H93.7697C93.7303 11.1496 93.5725 10.5749 93.2963 10.0899C93.0197 9.60495 92.6613 9.19969 92.2205 8.87415C91.7798 8.54861 91.2797 8.3061 90.7202 8.14665C90.1611 7.9872 89.5787 7.90747 88.9734 7.90747C88.1445 7.90747 87.4077 8.04701 86.7629 8.32605C86.1181 8.60509 85.5722 8.99374 85.1247 9.492C84.6771 9.9903 84.3382 10.5816 84.1083 11.2659C83.8779 11.9502 83.7626 12.6909 83.7626 13.4882C83.7626 14.2588 83.8877 14.9664 84.1376 15.6108C84.3878 16.2553 84.7365 16.81 85.1837 17.2751C85.6312 17.7402 86.1741 18.1022 86.8121 18.3614C87.4505 18.6204 88.1513 18.75 88.9144 18.75C90.2697 18.75 91.3815 18.3912 92.2502 17.6737C93.1186 16.9562 93.645 15.9132 93.8291 14.5445H91.1249C91.0328 15.1823 90.8059 15.6906 90.444 16.0693C90.0822 16.4479 89.5655 16.6373 88.8945 16.6373C88.4605 16.6373 88.0919 16.5377 87.7894 16.3383C87.4866 16.139 87.2465 15.8832 87.0687 15.571C86.891 15.2587 86.7629 14.9099 86.684 14.5246C86.6051 14.1393 86.5656 13.7606 86.5656 13.3885C86.5656 13.0032 86.6051 12.6145 86.684 12.2226C86.7629 11.8306 86.8978 11.4718 87.0887 11.1463C87.2795 10.8207 87.526 10.555 87.8289 10.349C88.1313 10.1431 88.5063 10.0401 88.9538 10.0401C90.1513 10.0401 90.8419 10.6314 91.0264 11.814ZM95.0998 5.25V18.5642H97.9025V13.0896C97.9025 12.0399 98.0735 11.2858 98.4158 10.8274C98.7577 10.369 99.3104 10.1398 100.074 10.1398C100.745 10.1398 101.212 10.349 101.475 10.7676C101.738 11.1861 101.87 11.8206 101.87 12.671V18.5706H104.673V12.1528C104.673 11.515 104.617 10.9337 104.505 10.4088C104.393 9.88399 104.199 9.43886 103.923 9.07346C103.646 8.70806 103.268 8.42235 102.788 8.2164C102.307 8.01045 101.692 7.90747 100.942 7.90747C100.416 7.90747 99.8763 8.04368 99.3236 8.31608C98.7708 8.58848 98.3169 9.02362 97.9619 9.62156H97.9025V5.25H95.0998ZM106.451 11.3556C106.49 10.6912 106.655 10.1398 106.944 9.70129C107.234 9.2628 107.602 8.91068 108.049 8.64491C108.497 8.37919 109 8.18985 109.56 8.0769C110.119 7.96395 110.681 7.90747 111.247 7.90747C111.76 7.90747 112.28 7.94404 112.806 8.01709C113.333 8.09018 113.813 8.23301 114.247 8.44564C114.682 8.65823 115.037 8.95388 115.313 9.33255C115.589 9.71126 115.728 10.2128 115.728 10.8373V16.1988C115.728 16.6639 115.754 17.109 115.807 17.5342C115.859 17.9594 116.084 18.358 116.216 18.5706H113.374C113.321 18.4112 113.145 18.1687 113.113 18.0026C113.079 17.8365 113.057 17.6671 113.043 17.4944C112.596 17.9594 112.069 18.2849 111.464 18.471C110.859 18.657 110.24 18.75 109.609 18.75C109.122 18.75 108.668 18.6902 108.247 18.5706C107.826 18.4511 107.458 18.265 107.142 18.0126C106.826 17.7601 106.579 17.4412 106.401 17.0559C106.224 16.6705 106.135 16.2121 106.135 15.6806C106.135 15.096 106.237 14.6143 106.441 14.2356C106.645 13.8569 106.908 13.5546 107.23 13.3287C107.553 13.1028 107.921 12.9334 108.336 12.8205C108.75 12.7076 109.168 12.6179 109.589 12.5514C110.01 12.485 110.425 12.4318 110.833 12.392C111.241 12.3521 111.602 12.2923 111.918 12.2126C112.234 12.1329 112.484 12.0166 112.668 11.8638C112.853 11.711 112.938 11.4884 112.925 11.1961C112.925 10.8905 112.875 10.648 112.777 10.4686C112.678 10.2892 112.547 10.1497 112.382 10.0501C112.218 9.9504 112.027 9.88399 111.81 9.85076C111.593 9.81754 111.359 9.80092 111.109 9.80092C110.556 9.80092 110.122 9.92051 109.806 10.1597C109.49 10.3989 109.306 10.7975 109.254 11.3556H106.451ZM112.925 13.4483C112.806 13.5546 112.658 13.6377 112.481 13.6975C112.303 13.7572 112.112 13.8071 111.908 13.847C111.704 13.8868 111.49 13.92 111.267 13.9466C111.043 13.9732 110.819 14.0064 110.596 14.0463C110.385 14.0861 110.178 14.1393 109.974 14.2057C109.77 14.2722 109.593 14.3618 109.441 14.4748C109.29 14.5877 109.168 14.7306 109.076 14.9033C108.984 15.076 108.938 15.2953 108.938 15.561C108.938 15.8135 108.984 16.0261 109.076 16.1988C109.168 16.3716 109.293 16.5078 109.451 16.6074C109.609 16.7071 109.793 16.7768 110.004 16.8167C110.214 16.8566 110.431 16.8765 110.655 16.8765C111.208 16.8765 111.635 16.7835 111.938 16.5974C112.241 16.4114 112.464 16.1889 112.609 15.9297C112.754 15.6707 112.843 15.4082 112.875 15.1425C112.908 14.8767 112.925 14.6641 112.925 14.5047V13.4483ZM121.19 8.22229V5.25H118.387V8.22229H116.69V10.08H118.387V16.159C118.387 16.6772 118.472 17.0957 118.643 17.4146C118.815 17.7335 119.048 17.9793 119.344 18.1521C119.64 18.3248 119.983 18.4411 120.371 18.5009C120.759 18.5607 121.17 18.5905 121.604 18.5905C121.88 18.5905 122.163 18.5839 122.453 18.5706C122.742 18.5573 123.006 18.5308 123.243 18.4909V16.2985C123.111 16.3251 122.973 16.345 122.828 16.3583C122.683 16.3716 122.532 16.3782 122.374 16.3782C121.9 16.3782 121.584 16.2985 121.427 16.139C121.269 15.9796 121.19 15.6607 121.19 15.1823V10.08H123.243V8.22229H121.19Z" fill="white"/>
</g>
<defs>
<clipPath id="clip0_11121_109193">
<rect width="123.243" height="24" fill="white"/>
</clipPath>
</defs>
</svg>
