<svg width="16" height="16" viewBox="0 0 16 16" fill="none" xmlns="http://www.w3.org/2000/svg">
<path d="M3.82819 11.6251C4.4883 11.1603 5.15492 10.8029 5.82803 10.5529C6.50114 10.3029 7.22475 10.1779 7.99886 10.1779C8.77297 10.1779 9.49753 10.3029 10.1725 10.5529C10.8475 10.8029 11.5184 11.1603 12.185 11.6251C12.6498 11.064 12.985 10.4859 13.1905 9.89075C13.3961 9.29564 13.4989 8.66564 13.4989 8.00075C13.4989 6.44664 12.9706 5.1413 11.9142 4.08475C10.8576 3.0283 9.55253 2.50008 7.99886 2.50008C6.44519 2.50008 5.14008 3.0283 4.08353 4.08475C3.02708 5.1413 2.49886 6.44664 2.49886 8.00075C2.49886 8.66564 2.60347 9.29564 2.81269 9.89075C3.02203 10.4859 3.36053 11.064 3.82819 11.6251ZM7.99803 8.53341C7.3578 8.53341 6.81825 8.31369 6.37936 7.87425C5.94047 7.4348 5.72103 6.89497 5.72103 6.25475C5.72103 5.61464 5.94075 5.07514 6.38019 4.63625C6.81964 4.19736 7.35947 3.97791 7.99969 3.97791C8.63992 3.97791 9.17947 4.19764 9.61836 4.63708C10.0572 5.07652 10.2767 5.6163 10.2767 6.25641C10.2767 6.89664 10.057 7.43619 9.61753 7.87508C9.17808 8.31397 8.63825 8.53341 7.99803 8.53341ZM8.00136 14.5556C7.10069 14.5556 6.25136 14.3829 5.45336 14.0374C4.65525 13.6919 3.96008 13.2224 3.36786 12.6291C2.77553 12.0356 2.30669 11.3413 1.96136 10.5461C1.61603 9.75097 1.44336 8.9013 1.44336 7.99708C1.44336 7.09641 1.61608 6.24797 1.96153 5.45175C2.30708 4.65552 2.77653 3.9613 3.36986 3.36908C3.9633 2.77675 4.65764 2.30791 5.45286 1.96258C6.24797 1.61725 7.09764 1.44458 8.00186 1.44458C8.90253 1.44458 9.75097 1.6173 10.5472 1.96275C11.3434 2.3083 12.0376 2.77775 12.6299 3.37108C13.2222 3.96452 13.691 4.65908 14.0364 5.45475C14.3817 6.2503 14.5544 7.09791 14.5544 7.99758C14.5544 8.89825 14.3816 9.74758 14.0362 10.5456C13.6906 11.3437 13.2212 12.0389 12.6279 12.6311C12.0344 13.2234 11.3399 13.6922 10.5442 14.0376C9.74864 14.3829 8.90103 14.5556 8.00136 14.5556ZM7.99853 13.5001C8.59508 13.5001 9.16975 13.414 9.72253 13.2417C10.2753 13.0695 10.8192 12.7816 11.3544 12.3779C10.8192 12.0057 10.2735 11.7219 9.71719 11.5264C9.16086 11.3311 8.58842 11.2334 7.99986 11.2334C7.4113 11.2334 6.83714 11.3297 6.27736 11.5222C5.71758 11.7149 5.17292 12.0001 4.64336 12.3779C5.17847 12.7816 5.7223 13.0695 6.27486 13.2417C6.82742 13.414 7.40197 13.5001 7.99853 13.5001ZM7.99886 7.47791C8.35253 7.47791 8.64464 7.36264 8.87519 7.13208C9.10575 6.90153 9.22103 6.60936 9.22103 6.25558C9.22103 5.90191 9.10575 5.6098 8.87519 5.37925C8.64464 5.14869 8.35253 5.03341 7.99886 5.03341C7.64519 5.03341 7.35308 5.14869 7.12253 5.37925C6.89197 5.6098 6.77669 5.90191 6.77669 6.25558C6.77669 6.60936 6.89197 6.90153 7.12253 7.13208C7.35308 7.36264 7.64519 7.47791 7.99886 7.47791Z" fill="#141414"/>
</svg>
